<?xml version="1.0" encoding="utf-8"?>
<!-- Generator: Adobe Illustrator 22.0.1, SVG Export Plug-In . SVG Version: 6.00 Build 0)  -->
<svg version="1.1" id="Layer_1" xmlns="http://www.w3.org/2000/svg" xmlns:xlink="http://www.w3.org/1999/xlink" x="0px" y="0px"
	 viewBox="0 0 163 163" style="enable-background:new 0 0 163 163;" xml:space="preserve">
<style type="text/css">
	.st0{fill:#100699;}
</style>
<title>Artboard 80 copy 2</title>
<g id="Base_Design">
	<path class="st0" d="M9.8,81.5c0-8.1,1.3-16.1,4-23.7c0.3-0.9-0.2-1.8-1-2.1c-0.9-0.3-1.8,0.2-2.1,1c-6,17.2-5.5,36,1.3,52.9
		c0.4,0.8,1.4,1.2,2.2,0.8c0.7-0.4,1.1-1.2,0.8-2C11.5,99.9,9.7,90.7,9.8,81.5z M131.3,133.1c-27.8,26.8-71.8,26.8-99.6,0
		c-0.6-0.6-1.7-0.6-2.3,0s-0.6,1.7,0,2.3c29,28,75.1,28,104.1,0c0.6-0.6,0.7-1.7,0-2.3C133,132.5,131.9,132.5,131.3,133.1z
		 M152.3,56.8c-0.5-0.8-1.5-1-2.3-0.5c-0.5,0.3-0.8,0.9-0.8,1.6c5.7,16.5,5.3,34.4-1.2,50.6c-0.4,0.8,0,1.8,0.8,2.2
		c0.8,0.4,1.8,0,2.2-0.8c0-0.1,0.1-0.1,0.1-0.2C157.8,92.8,158.3,74,152.3,56.8L152.3,56.8z M33.6,28.1c27.2-24.4,68.5-24.4,95.7,0
		c0.7,0.6,1.7,0.5,2.3-0.1c0.6-0.7,0.5-1.7-0.1-2.3C103,0.1,59.9,0.1,31.4,25.7c-0.7,0.6-0.7,1.6-0.1,2.3
		C31.9,28.7,32.9,28.7,33.6,28.1C33.6,28.1,33.6,28.1,33.6,28.1z"/>
	<path class="st0" d="M140.3,38.8H99.5c-7.9,0-15,4.7-18.1,11.9c-3.1-7.2-10.2-11.9-18.1-11.9H22.6c-0.9,0-1.6,0.7-1.6,1.6v80.2
		c0,0.9,0.7,1.6,1.6,1.6h40.7c8.4,0,15.5,6.4,16.3,14.8c0.1,0.8,0.9,1.5,1.7,1.5h0.1c0.8,0,1.5-0.6,1.6-1.5
		c0.8-8.4,7.9-14.8,16.3-14.8h40.8c0.9,0,1.6-0.7,1.6-1.6V40.4C141.9,39.5,141.2,38.8,140.3,38.8z M63.4,119H24.3v-77h39.1
		c9.1,0,16.4,7.4,16.5,16.5v69.3C76.2,122.3,70,119,63.4,119z M138.6,119H99.5c-6.6,0-12.8,3.3-16.5,8.8V58.5
		c0-9.1,7.4-16.5,16.5-16.5c0,0,0,0,0,0h39.2L138.6,119z"/>
	<path class="st0" d="M94.6,60.6c0,0.9,0.7,1.6,1.6,1.6h29.3c0.9,0,1.6-0.7,1.6-1.6s-0.7-1.6-1.6-1.6H96.2
		C95.3,59,94.6,59.7,94.6,60.6z M125.5,78.9H96.2c-0.9,0-1.6,0.7-1.6,1.6s0.7,1.6,1.6,1.6h29.3c0.9,0,1.6-0.7,1.6-1.6
		S126.4,78.9,125.5,78.9z M125.5,98.6H96.2c-0.9,0-1.6,0.7-1.6,1.6s0.7,1.6,1.6,1.6h29.3c0.9,0,1.6-0.7,1.6-1.6
		S126.4,98.6,125.5,98.6z M66.7,59H37.4c-0.9,0-1.6,0.7-1.6,1.6s0.7,1.6,1.6,1.6h29.3c0.9,0,1.6-0.7,1.6-1.6S67.6,59,66.7,59z
		 M66.7,78.9H37.4c-0.9,0-1.6,0.7-1.6,1.6s0.7,1.6,1.6,1.6h29.3c0.9,0,1.6-0.7,1.6-1.6S67.6,78.9,66.7,78.9z M66.7,98.6H37.4
		c-0.9,0-1.6,0.7-1.6,1.6s0.7,1.6,1.6,1.6h29.3c0.9,0,1.6-0.7,1.6-1.6S67.6,98.6,66.7,98.6z"/>
</g>
</svg>
