<?xml version="1.0" encoding="utf-8"?>
<!-- Generator: Adobe Illustrator 22.0.1, SVG Export Plug-In . SVG Version: 6.00 Build 0)  -->
<svg version="1.1" id="Layer_1" xmlns="http://www.w3.org/2000/svg" xmlns:xlink="http://www.w3.org/1999/xlink" x="0px" y="0px"
	 viewBox="0 0 166 166" style="enable-background:new 0 0 166 166;" xml:space="preserve">
<style type="text/css">
	.st0{fill:#10069F;}
</style>
<title>icons/group</title>
<desc>Created with Sketch.</desc>
<g id="Page-1">
	<path id="icons_x2F_group" class="st0" d="M83,158c-41.4,0-75-33.6-75-75S41.6,8,83,8s75,33.6,75,75S124.4,158,83,158z M83,154.2
		c39.3,0,71.2-31.9,71.2-71.2S122.3,11.8,83,11.8S11.8,43.7,11.8,83S43.7,154.2,83,154.2z M36.3,62.7c0-7.8,6.4-14.2,14.3-14.2
		s14.3,6.4,14.3,14.2c0,5-2.7,9.5-6.6,12c4,1.4,7.4,4,10,7.3c2-1.6,4.3-2.8,6.8-3.7c-4-2.5-6.6-7-6.6-12c0-7.8,6.4-14.2,14.3-14.2
		c7.8,0,14.3,6.4,14.3,14.2c0,5-2.6,9.5-6.6,12c2.5,0.9,4.8,2.1,6.8,3.7c2.6-3.3,6-5.9,10-7.3c-4-2.5-6.6-7-6.6-12
		c0-7.8,6.4-14.2,14.3-14.2c7.8,0,14.3,6.4,14.3,14.2c0,5.1-2.7,9.5-6.7,12c8.6,3.1,14.8,11.4,14.8,21.1v5.9c0,0.9-0.5,1.7-1.3,2.1
		c-6,3.3-13.3,5.2-21.1,5.2c-3.3,0-6.5-0.4-9.5-1v2.3c0,0.9-0.5,1.7-1.3,2.1c-4.7,2.4-10.2,4.3-16.3,4.9c-0.9,0.2-1.8-0.2-2.3-0.9
		c-0.5-0.7-0.6-1.7-0.2-2.5c0.4-0.8,1.2-1.3,2.1-1.3c4.9-0.5,9.3-2,13.3-3.9v-10c0-9.3-7.8-16.9-17.8-16.9c-10,0-17.8,7.6-17.8,16.9
		v10c4,1.9,8.4,3.4,13.3,3.9c0.9,0,1.7,0.5,2.1,1.3c0.4,0.8,0.3,1.8-0.2,2.5c-0.5,0.7-1.4,1.1-2.3,0.9c-6.1-0.6-11.5-2.4-16.3-4.9
		c-0.8-0.4-1.3-1.2-1.3-2.1v-2.3c-3,0.6-6.2,1-9.5,1c-7.8,0-15-1.9-21.1-5.2c-0.8-0.4-1.3-1.2-1.3-2.1v-5.9
		c0-9.7,6.2-17.9,14.8-21.1C39,72.2,36.3,67.7,36.3,62.7z M50.6,52.2c-5.8,0-10.5,4.7-10.5,10.5c0,5.8,4.7,10.5,10.5,10.5
		s10.5-4.7,10.5-10.5C61.1,56.8,56.4,52.2,50.6,52.2z M114.7,52.2c-5.8,0-10.5,4.7-10.5,10.5c0,5.8,4.7,10.5,10.5,10.5
		c5.8,0,10.5-4.7,10.5-10.5C125.2,56.8,120.5,52.2,114.7,52.2z M82.6,55.7c-5.8,0-10.5,4.7-10.5,10.5c0,5.8,4.7,10.5,10.5,10.5
		c5.8,0,10.5-4.7,10.5-10.5C93.1,60.4,88.5,55.7,82.6,55.7z M50.6,77.1C40.2,77.1,32,85.4,32,95.8v5.1l0.6,0.3
		c5.4,2.6,11.6,4.1,18,4.1c3.3,0,6.5-0.4,9.7-1.1l0.8-0.2v-5.3c0-4.6,1.6-9,4.5-12.6l0.5-0.6l-0.4-0.6C62.1,80,56.6,77.1,50.6,77.1z
		 M114.7,77.1c-6.1,0-11.6,2.9-15,7.7l-0.4,0.6l0.5,0.6c2.9,3.6,4.5,8,4.5,12.6v5.3l0.8,0.2c3.2,0.7,6.4,1.1,9.7,1.1
		c6.4,0,12.6-1.4,18-4.1l0.6-0.3v-5C133.3,85.4,125,77.1,114.7,77.1z"/>
</g>
</svg>
