<?xml version="1.0" encoding="utf-8"?>
<!-- Generator: Adobe Illustrator 22.0.1, SVG Export Plug-In . SVG Version: 6.00 Build 0)  -->
<svg version="1.1" id="Layer_1" xmlns="http://www.w3.org/2000/svg" xmlns:xlink="http://www.w3.org/1999/xlink" x="0px" y="0px"
	 viewBox="0 0 158 158" style="enable-background:new 0 0 158 158;" xml:space="preserve">
<style type="text/css">
	.st0{fill:#10069F;}
</style>
<title>icons/pencil</title>
<desc>Created with Sketch.</desc>
<g id="Page-1">
	<path id="icons_x2F_pencil" class="st0" d="M78.5,153.5c-41.4,0-75-33.6-75-75s33.6-75,75-75s75,33.6,75,75S120,153.5,78.5,153.5z
		 M78.5,149.7c39.3,0,71.2-31.9,71.2-71.2S117.9,7.3,78.5,7.3S7.3,39.2,7.3,78.5S39.2,149.7,78.5,149.7z M43.7,98.4
		c-0.1,0.4-0.1,0.8-0.1,1.2c0,2.1,1,4.2,2.6,5.7c1.9-1.8,3.1-4.2,3.3-6.8c0.2-2.7-1-4.1-2.2-4.3C46,94.1,44.3,95.3,43.7,98.4z
		 M57.4,106.5l-0.2,3.2c-3.9,1.5-7.8,1.2-11-0.7c-3,1.9-6.7,2.5-10.3,1.7c-7-1.5-8.5-7.6-8.4-10.7l2.8,0.1c0,0.3-0.2,6.3,6.1,7.7
		c2.6,0.6,5.1,0.3,7.3-0.8c-2.4-2.5-3.5-6-2.9-9.2c1-4.9,4.1-6.8,6.8-6.4c2.5,0.3,5,2.8,4.6,7.3c-0.2,3.1-1.6,6-3.7,8.2
		C51.2,108.2,54.3,108,57.4,106.5z M101.6,58.8l10,10l10-10l-10-10L101.6,58.8z M109.1,71.2l-10-10L66.6,93.8l-2.5,12.4l12.4-2.5
		L109.1,71.2z M78.7,106.5c-0.2,0.2-0.6,0.4-0.9,0.5l-15.5,3.1c-1.2,0.2-2.3-0.8-2-2l3.1-15.5c0.1-0.3,0.2-0.6,0.5-0.9l46.5-46.5
		c0.7-0.7,1.8-0.7,2.5,0l12.4,12.4c0.7,0.7,0.7,1.8,0,2.5L78.7,106.5z"/>
</g>
</svg>
