<?xml version="1.0" encoding="utf-8"?>
<!-- Generator: Adobe Illustrator 22.0.1, SVG Export Plug-In . SVG Version: 6.00 Build 0)  -->
<svg version="1.1" id="Layer_1" xmlns="http://www.w3.org/2000/svg" xmlns:xlink="http://www.w3.org/1999/xlink" x="0px" y="0px"
	 viewBox="0 0 166 166" style="enable-background:new 0 0 166 166;" xml:space="preserve">
<style type="text/css">
	.st0{fill:#10069F;}
</style>
<title>icons/heart</title>
<desc>Created with Sketch.</desc>
<g id="Page-1">
	<path id="icons_x2F_heart" class="st0" d="M83,158c-41.4,0-75-33.6-75-75S41.6,8,83,8s75,33.6,75,75S124.4,158,83,158z M83,154.2
		c39.3,0,71.2-31.9,71.2-71.2S122.3,11.8,83,11.8S11.8,43.7,11.8,83S43.7,154.2,83,154.2z M84.6,124.5c-0.6,0.2-1.1,0.2-1.4,0.2
		c-0.3,0-0.8-0.1-1.4-0.4c-2.6-1.1-10.2-4.3-18.3-9.7c-13.2-8.8-21.2-19.2-23.4-30c-2.7-13.5,1-21.4,4.6-25.7c4.2-5,10.7-8,17.3-8
		c11.5,0,18.5,6.4,21.4,9.7c2.8-3.2,9.9-9.6,21.3-9.6c6.6,0,13.1,3,17.3,8c3.6,4.3,7.3,12.2,4.6,25.7c-2.2,10.8-10.3,21.2-23.4,30
		C94.7,120.3,87,123.5,84.6,124.5z M47.3,61c-4.4,5.4-5.8,13.3-3.9,23c4.5,22.4,35.2,35.5,39.8,37.4c4.7-1.9,35.5-15,39.9-37.4
		c2-9.6,0.6-17.6-3.9-23c-3.5-4.3-9-6.9-14.6-6.9c-13,0-19.8,9.9-19.9,10l-0.5,0.7h-1.8l-0.5-0.7c0-0.1-6.9-10-19.9-10
		C56.3,54.1,50.8,56.7,47.3,61z"/>
</g>
</svg>
