<svg enable-background="new 0 0 150.4 163.5" viewBox="0 0 150.4 163.5" xmlns="http://www.w3.org/2000/svg"><g fill="#10069f"><path d="m75.3 128c-23.9 0-43.3-19.4-43.3-43.2s19.4-43.3 43.3-43.3 43.3 19.4 43.3 43.3-19.5 43.2-43.3 43.2zm0-82.7c-21.7 0-39.5 17.7-39.5 39.5s17.7 39.4 39.5 39.4 39.5-17.7 39.5-39.5-17.8-39.4-39.5-39.4z"/><path d="m75.3 104.9c-11.1 0-20.2-9.1-20.2-20.2h3.8c0 9 7.3 16.4 16.4 16.4 9 0 16.4-7.3 16.4-16.4h3.8c0 11.2-9 20.2-20.2 20.2z"/><path d="m92.7 12.6-.6 3.8c31.1 7.6 54.3 35.7 54.3 69.1 0 39.3-31.9 71.1-71.1 71.1s-71.1-32-71.1-71.1c0-28.7 17.1-53.5 41.7-64.7-.3-1.3-.6-2.5-1.1-3.8-26.2 11.7-44.4 38-44.4 68.5 0 41.4 33.7 75 75 75s75-33.7 75-75c-.1-35.3-24.7-65.1-57.7-72.9z"/><path d="m76.9 44.5-3.2-2.2c3.6-5.3 4.5-10.6 2.5-15-3 3-6.9 4.7-11.1 5.1-6.1.5-9.4-3-9.9-6.3-.5-3.6 2-7.8 8.7-9.2 4.3-.8 9 .6 12.3 3.9 1.5-3 1.8-6.4 1.1-9.9-1.9-8.5-10-8.3-10.4-8.3l-.2-3.8c4.1-.3 12.3 1.8 14.4 11.2 1.1 5 .3 9.9-2.2 14 3.5 5.9 2.8 13.5-2 20.5zm-10.6-24.1c-.5 0-1.2.1-1.7.2-4.2.8-5.8 3.2-5.6 5 .2 1.6 2.1 3.3 5.8 3 3.6-.3 6.9-1.9 9.2-4.5-2.1-2.3-4.9-3.7-7.7-3.7z"/></g></svg>