<svg xmlns="http://www.w3.org/2000/svg" xmlns:xlink="http://www.w3.org/1999/xlink" style="isolation:isolate" viewBox="0 0 20 20" version="1.1" shape-rendering="crispEdges"><path d="M3 20v-3h1v-1h4v-2H6v-1H5v-1H4v-1H3V9H2V7h1V4h1V3h1V2h10v1h1v1h1v3h1v2h-1v2h-1v1h-1v1h-1v1h-2v2h4v1h1v3H3z" fill="#8D5524"/><path d="M14 14v-1h1v-1h1v-1h1V9h1V7h-1V4h-1V3h-1V2H5v1H4v1H3v3H2v2h1v2h1v1h1v1h1v1h8z" fill="#FFF" fill-opacity=".1"/><path d="M5 7h3v3H5V7zm7 0h3v3h-3V7z" fill="#FFF"/><path d="M5 8h2v1H5V8zm7 0h2v1h-2V8z" fill="#5b7c8b"/><path d="M5 8h1v1H5V8zm7 0h1v1h-1V8z" fill="#FFF" fill-opacity=".7"/><path d="M8 4v1H7v1H5V5h2V4h1zm4 0h1v1h2v1h-2V5h-1V4z" fill-rule="evenodd" fill="#3b2b23"/><path d="M9 12v1h1v1h1v-2H9z" fill="#e35d6a"/><path d="M4 8H3V7h1V6h5v1h2V6h5v1h1v1h-1v2h-5V8H9v2H4V8zm1 0V7h3v2H5V8zm7-1v2h3V7h-3z" fill-rule="evenodd" fill="#191919"/><path d="M5 7h3v2H5V7zm7 0h3v2h-3V7z" fill-rule="evenodd" fill="#FFF" fill-opacity=".2"/><path d="M14 7h1v1h-1V7zM7 7h1v1H7V7z" fill-rule="evenodd" fill="#FFF" fill-opacity=".2"/><path d="M3 8V7h1v1H3zm6-1v1h2V7H9zm7 0v1h1V7h-1z" fill-rule="evenodd" fill="#FFF" fill-opacity=".2"/><path d="M4 20v-2h1v-1h1v-1h2v1h1v1h2v-1h1v-1h2v1h1v1h1v2H4z" fill="#eeba30"/><path d="M4 12h1v1H3V4h1V3h1V2h10v1h1v1h1v9h-2v-1h1V5H4v7z" fill="#533d32"/><path d="M4 0v2H2v2h16V2h-2V0H4z" fill="#2663a3"/></svg>